<svg xmlns="http://www.w3.org/2000/svg" viewBox="0 0 100 100"><defs><style>.cls-1{fill:#f0457d;}.cls-1,.cls-2,.cls-3,.cls-4,.cls-5,.cls-6{stroke:#231f20;stroke-miterlimit:10;stroke-width:1.5px;}.cls-2{fill:#ffd44d;}.cls-3{fill:#0099f5;}.cls-4{fill:#231f20;}.cls-5{fill:#fff;}.cls-6{fill:none;}</style></defs><g id="Layer_2" data-name="Layer 2"><path class="cls-1" d="M83.94,39.63H19.26v7.56a21.4,21.4,0,0,0,.88,6.11l1.63,5.57A21.51,21.51,0,0,1,22.65,65V83.81a3.65,3.65,0,0,0,3.65,3.65H76.89a3.65,3.65,0,0,0,3.65-3.65V65a21.87,21.87,0,0,1,.88-6.12l1.64-5.57a21.75,21.75,0,0,0,.88-6.11Z"/><rect class="cls-2" x="25.74" y="58.45" width="51.72" height="25.95" rx="3.28"/><rect class="cls-3" x="28.75" y="63.26" width="7.14" height="3.66" rx="1.54"/><rect class="cls-3" x="38.39" y="63.26" width="7.14" height="3.66" rx="1.54"/><rect class="cls-3" x="48.03" y="63.26" width="7.14" height="3.66" rx="1.54"/><rect class="cls-3" x="57.66" y="63.26" width="7.14" height="3.66" rx="1.54"/><rect class="cls-3" x="67.3" y="63.26" width="7.14" height="3.66" rx="1.54"/><rect class="cls-3" x="28.75" y="70.04" width="7.14" height="3.66" rx="1.54"/><rect class="cls-3" x="38.39" y="70.04" width="7.14" height="3.66" rx="1.54"/><rect class="cls-3" x="48.03" y="70.04" width="7.14" height="3.66" rx="1.54"/><rect class="cls-3" x="57.66" y="70.04" width="7.14" height="3.66" rx="1.54"/><rect class="cls-3" x="67.3" y="70.04" width="7.14" height="3.66" rx="1.54"/><rect class="cls-3" x="28.75" y="76.83" width="7.14" height="3.66" rx="1.54"/><rect class="cls-3" x="38.39" y="76.83" width="7.14" height="3.66" rx="1.54"/><rect class="cls-3" x="48.03" y="76.83" width="7.14" height="3.66" rx="1.54"/><rect class="cls-3" x="57.66" y="76.83" width="7.14" height="3.66" rx="1.54"/><rect class="cls-3" x="67.3" y="76.83" width="7.14" height="3.66" rx="1.54"/><path class="cls-4" d="M79.39,35.38H23.8v7h9.66a32,32,0,0,1,9.36,1.5A30.92,30.92,0,0,0,51.6,45a31,31,0,0,0,8.78-1.13,32,32,0,0,1,9.35-1.5h9.66Z"/><rect class="cls-5" x="29.73" y="10.09" width="43.74" height="29.54"/><line class="cls-1" x1="23.8" y1="35.38" x2="19.95" y2="35.38"/><line class="cls-1" x1="19.95" y1="33.49" x2="19.95" y2="37.27"/><line class="cls-1" x1="79.39" y1="35.38" x2="83.24" y2="35.38"/><line class="cls-1" x1="83.24" y1="33.49" x2="83.24" y2="37.27"/><line class="cls-1" x1="27.26" y1="49.18" x2="75.93" y2="49.18"/><line class="cls-6" x1="44.92" y1="16.97" x2="58.28" y2="16.97"/><line class="cls-6" x1="35.89" y1="22.34" x2="67.3" y2="22.34"/><line class="cls-6" x1="35.89" y1="26.6" x2="67.3" y2="26.6"/><line class="cls-6" x1="35.89" y1="30.86" x2="67.3" y2="30.86"/><line class="cls-6" x1="35.89" y1="35.13" x2="67.3" y2="35.13"/></g></svg>