<svg version="1.1" id="Layer_1" xmlns="http://www.w3.org/2000/svg"
	xmlns:xlink="http://www.w3.org/1999/xlink" x="0px" y="0px"
	width="100%" viewBox="0 0 500 500" enable-background="new 0 0 500 500" xml:space="preserve">
<path fill="#000000" opacity="0.000000" stroke="none" 
	d="
M94.000000,501.000000 
	C63.007675,501.000000 32.015347,501.000000 1.017266,501.000000 
	C1.011511,334.382263 1.011511,167.764526 1.011511,1.073395 
	C167.576447,1.073395 334.152954,1.073395 500.864716,1.073395 
	C500.864716,167.666595 500.864716,334.333282 500.864716,501.000000 
	C447.240936,501.000000 393.587463,501.000000 339.467499,500.531342 
	C339.001099,481.472229 338.975891,462.881714 339.022217,444.291382 
	C339.031677,440.507874 339.310608,436.725037 339.795776,432.994690 
	C352.937164,419.334198 366.390503,406.152130 378.328400,391.716827 
	C386.006165,382.432892 392.205658,371.689972 397.721252,360.911926 
	C405.279694,346.141846 402.077209,330.729065 396.923401,316.023010 
	C390.688873,298.233246 380.775970,282.370300 369.809784,267.026215 
	C355.111084,246.459656 338.936707,227.256348 321.068176,209.403442 
	C318.290131,206.627792 316.255096,206.390884 313.056274,208.243286 
	C309.654327,210.213318 305.894958,211.554703 302.363251,213.314362 
	C293.808167,217.576904 285.294708,221.922989 276.046570,226.598343 
	C278.946777,231.596268 281.547913,235.883438 283.961914,240.273483 
	C293.288727,257.234833 302.743744,274.129730 311.786407,291.242035 
	C319.154541,305.185486 326.249634,319.287781 332.950378,333.561615 
	C335.368866,338.713379 336.287781,344.569092 337.430359,350.059631 
	C325.677612,350.011566 314.385193,349.968903 303.093658,350.048859 
	C301.569855,350.059662 300.050415,350.687103 298.193939,351.014679 
	C295.675201,352.381409 293.581543,353.938110 291.291626,355.112000 
	C283.001801,359.361633 274.155487,361.237701 264.874451,362.298065 
	C246.474945,364.400146 229.852051,359.654236 213.853271,350.598633 
	C199.818039,350.103333 185.888672,350.030487 171.959305,350.026794 
	C171.309982,350.026611 170.660477,350.643402 169.585114,350.981995 
	C153.669144,351.330231 142.371979,359.840942 133.442276,371.127014 
	C120.030502,388.077972 111.954079,407.860504 106.955688,428.789337 
	C103.293404,444.123718 100.055466,459.573059 97.147621,475.068604 
	C95.545036,483.608551 95.014084,492.349609 94.000000,501.000000 
M243.540161,218.762161 
	C241.777527,219.195877 239.933502,219.427414 238.266388,220.098450 
	C231.156067,222.960419 223.132858,224.691406 217.249313,229.195114 
	C208.628052,235.794479 201.056946,243.749817 195.380936,253.577225 
	C186.194870,269.481934 182.859406,286.420135 186.317703,303.955322 
	C191.052109,327.960846 205.814178,344.779175 228.619308,353.710693 
	C246.749802,360.811401 265.497070,361.596771 283.822296,354.454010 
	C301.004303,347.756836 312.725098,334.931702 320.188660,318.263947 
	C320.943848,316.577423 320.146729,313.786407 319.280792,311.863342 
	C317.056488,306.923889 314.526459,302.106720 311.872711,297.378693 
	C301.883148,279.580872 291.787567,261.842590 281.748840,244.072296 
	C278.137177,237.679001 274.573914,231.258347 271.034546,224.932266 
	C273.092712,223.837845 274.563629,223.055664 277.149750,221.680511 
	C274.104401,220.877640 272.428253,220.147949 270.710449,220.031235 
	C261.880157,219.431213 253.039154,218.988724 243.540161,218.762161 
M343.230804,46.365475 
	C335.146423,47.906681 331.708221,53.212105 333.964661,60.663754 
	C335.410431,65.438103 338.331573,66.930931 342.914154,65.801498 
	C351.083344,63.788132 359.079010,61.482960 367.590302,65.643051 
	C375.362122,69.441689 377.289215,78.525940 370.461578,83.765839 
	C368.562836,85.223030 366.091827,86.128532 363.742218,86.770653 
	C353.600677,89.542183 343.408600,92.129051 333.231262,94.769066 
	C326.237762,96.583183 320.337921,100.335320 318.158417,107.272812 
	C314.102448,120.183235 320.026093,130.716385 328.012451,140.221924 
	C328.890778,141.267334 331.912262,141.066879 333.669891,140.541428 
	C334.357819,140.335754 334.682007,137.598984 334.508728,136.091187 
	C334.105072,132.578186 332.626495,129.079117 332.792053,125.632477 
	C333.167938,117.807220 339.038086,114.198921 345.522064,112.139862 
	C352.005402,110.081017 358.795135,108.965919 365.474701,107.551163 
	C376.134918,105.293282 382.908478,98.190712 385.125153,87.837601 
	C387.016693,79.003342 384.770172,71.237076 380.475861,63.739117 
	C375.089630,54.334538 367.844177,47.302486 356.537140,46.059231 
	C352.427734,45.607384 348.223145,46.021019 343.230804,46.365475 
M236.273193,50.055656 
	C238.475159,48.987591 240.776703,48.082973 242.857056,46.815319 
	C246.494080,44.599113 249.771713,41.675270 253.597870,39.910889 
	C262.650574,35.736382 271.483276,38.615192 273.382812,45.990665 
	C274.928040,51.990498 271.701599,56.079025 267.960480,59.280212 
	C260.565582,65.607826 252.538223,71.195778 244.779343,77.098717 
	C237.848999,82.371307 231.704803,91.457825 234.958710,101.552834 
	C238.235062,111.717522 246.465149,116.917336 254.951172,121.840080 
	C259.188416,124.298111 261.395691,122.418701 261.976166,117.959557 
	C251.767014,109.438087 250.738480,97.844803 260.825714,89.722610 
	C264.256561,86.960068 267.979980,84.562439 271.549744,81.970490 
	C277.266785,77.819374 283.381683,74.203064 286.189087,67.027664 
	C292.275177,51.472202 282.220093,35.666908 269.643585,28.192316 
	C257.181122,20.785521 244.731995,21.152008 232.639069,29.575863 
	C229.222031,31.956152 225.767853,38.676609 227.029343,42.915710 
	C228.213776,46.895844 230.875443,49.813187 236.273193,50.055656 
M145.573349,73.069588 
	C149.935516,66.135788 155.780136,61.335499 164.074295,59.834366 
	C170.384155,58.692360 177.195465,66.065010 174.961121,72.007278 
	C173.475784,75.957512 171.748642,79.891937 169.560486,83.486961 
	C165.172531,90.696129 159.989624,97.442772 155.896973,104.804047 
	C152.168808,111.509712 149.661087,118.825912 153.766418,126.483620 
	C159.472626,137.127457 170.110550,139.303146 180.504440,141.697388 
	C182.995773,142.271255 185.512436,142.326279 186.420761,138.487061 
	C187.330582,134.641403 184.399506,134.872467 182.640961,133.911118 
	C173.318680,128.814911 169.446701,121.011368 175.924469,110.483589 
	C179.724091,104.308357 183.497437,98.105759 187.578568,92.117165 
	C197.910828,76.955711 190.814133,62.657413 178.632111,54.467503 
	C166.765182,46.489410 153.150650,43.921005 139.691223,52.776707 
	C134.056564,56.484070 130.123047,61.656521 127.281067,67.396355 
	C124.978447,72.046860 127.316635,77.197884 131.110153,78.998085 
	C138.019119,82.276703 139.579865,81.877426 143.833466,75.747200 
	C144.302689,75.070953 144.780487,74.400681 145.573349,73.069588 
M192.368057,185.981506 
	C198.362976,184.944016 203.495987,182.801285 204.847763,175.993546 
	C205.959030,170.397110 203.043793,163.784317 198.302597,160.980820 
	C194.759918,158.886017 185.600067,159.009750 183.292877,161.450104 
	C178.749054,166.256241 178.589676,172.356445 180.245316,178.029861 
	C181.706543,183.037064 186.230316,185.516235 192.368057,185.981506 
M260.916840,142.318298 
	C251.899841,139.022888 244.623108,142.555130 242.229263,151.389572 
	C240.407059,158.114304 244.409744,165.749969 250.892365,166.789917 
	C258.706543,168.043457 265.171661,166.532944 267.187805,157.913651 
	C268.724945,151.342133 266.180969,146.794418 260.916840,142.318298 
M311.932098,155.950348 
	C304.552582,158.597870 301.406799,163.836243 301.948303,171.630264 
	C302.262970,176.159348 303.684021,179.526047 308.376068,181.029816 
	C314.488037,182.988617 320.416595,182.202423 323.172211,178.887405 
	C326.807007,174.514740 328.234589,169.755203 326.159760,164.209717 
	C323.817200,157.948807 318.766266,156.204926 311.932098,155.950348 
z"/>
<path fill="#134E4A" opacity="1.000000" stroke="none" 
	d="
M337.890991,350.103577 
	C336.287781,344.569092 335.368866,338.713379 332.950378,333.561615 
	C326.249634,319.287781 319.154541,305.185486 311.786407,291.242035 
	C302.743744,274.129730 293.288727,257.234833 283.961914,240.273483 
	C281.547913,235.883438 278.946777,231.596268 276.046570,226.598343 
	C285.294708,221.922989 293.808167,217.576904 302.363251,213.314362 
	C305.894958,211.554703 309.654327,210.213318 313.056274,208.243286 
	C316.255096,206.390884 318.290131,206.627792 321.068176,209.403442 
	C338.936707,227.256348 355.111084,246.459656 369.809784,267.026215 
	C380.775970,282.370300 390.688873,298.233246 396.923401,316.023010 
	C402.077209,330.729065 405.279694,346.141846 397.721252,360.911926 
	C392.205658,371.689972 386.006165,382.432892 378.328400,391.716827 
	C366.390503,406.152130 352.937164,419.334198 339.414337,433.237549 
	C338.468323,435.195404 338.034515,436.962708 338.030457,438.730988 
	C337.983002,459.487244 338.000000,480.243652 338.000000,501.000000 
	C283.312439,501.000000 228.624878,501.000000 173.471954,500.531342 
	C173.006607,480.043365 173.006607,460.024017 173.006607,440.004700 
	C172.731140,439.973541 172.455673,439.942383 172.180191,439.911194 
	C171.793213,442.282715 171.406235,444.654205 171.030960,447.451782 
	C168.028442,465.585236 165.014221,483.292603 162.000000,501.000000 
	C139.645767,501.000000 117.291542,501.000000 94.468658,501.000000 
	C95.014084,492.349609 95.545036,483.608551 97.147621,475.068604 
	C100.055466,459.573059 103.293404,444.123718 106.955688,428.789337 
	C111.954079,407.860504 120.030502,388.077972 133.442276,371.127014 
	C142.371979,359.840942 153.669144,351.330231 170.052765,351.011749 
	C185.283966,351.033112 199.621567,351.033844 213.959167,351.034546 
	C229.852051,359.654236 246.474945,364.400146 264.874451,362.298065 
	C274.155487,361.237701 283.001801,359.361633 291.291626,355.112000 
	C293.581543,353.938110 295.675201,352.381409 298.695557,351.050323 
	C310.792023,351.064789 322.052124,351.062347 333.311249,350.954895 
	C334.840393,350.940308 336.364532,350.400299 337.890991,350.103577 
z"/>
<path fill="#000000" opacity="0.000000" stroke="none" 
	d="
M162.454102,501.000000 
	C165.014221,483.292603 168.028442,465.585236 171.432816,447.624969 
	C171.881973,465.248077 171.940994,483.124023 172.000000,501.000000 
	C168.969406,501.000000 165.938812,501.000000 162.454102,501.000000 
z"/>
<path fill="#88A6A4" opacity="1.000000" stroke="none" 
	d="
M338.250000,501.000000 
	C338.000000,480.243652 337.983002,459.487244 338.030457,438.730988 
	C338.034515,436.962708 338.468323,435.195404 339.083923,433.184753 
	C339.310608,436.725037 339.031677,440.507874 339.022217,444.291382 
	C338.975891,462.881714 339.001099,481.472229 339.000519,500.531342 
	C339.000000,501.000000 338.500000,501.000000 338.250000,501.000000 
z"/>
<path fill="#E6ECEC" opacity="1.000000" stroke="none" 
	d="
M172.250000,501.000000 
	C171.940994,483.124023 171.881973,465.248077 171.421112,447.198914 
	C171.406235,444.654205 171.793213,442.282715 172.180191,439.911194 
	C172.455673,439.942383 172.731140,439.973541 173.006607,440.004700 
	C173.006607,460.024017 173.006607,480.043365 173.003296,500.531342 
	C173.000000,501.000000 172.500000,501.000000 172.250000,501.000000 
z"/>
<path fill="#144F4B" opacity="1.000000" stroke="none" 
	d="
M243.871033,218.626694 
	C253.039154,218.988724 261.880157,219.431213 270.710449,220.031235 
	C272.428253,220.147949 274.104401,220.877640 277.149750,221.680511 
	C274.563629,223.055664 273.092712,223.837845 271.034546,224.932266 
	C274.573914,231.258347 278.137177,237.679001 281.748840,244.072296 
	C291.787567,261.842590 301.883148,279.580872 311.872711,297.378693 
	C314.526459,302.106720 317.056488,306.923889 319.280792,311.863342 
	C320.146729,313.786407 320.943848,316.577423 320.188660,318.263947 
	C312.725098,334.931702 301.004303,347.756836 283.822296,354.454010 
	C265.497070,361.596771 246.749802,360.811401 228.619308,353.710693 
	C205.814178,344.779175 191.052109,327.960846 186.317703,303.955322 
	C182.859406,286.420135 186.194870,269.481934 195.380936,253.577225 
	C201.056946,243.749817 208.628052,235.794479 217.249313,229.195114 
	C223.132858,224.691406 231.156067,222.960419 238.266388,220.098450 
	C239.933502,219.427414 241.777527,219.195877 243.871033,218.626694 
z"/>
<path fill="#16504C" opacity="1.000000" stroke="none" 
	d="
M343.646393,46.202621 
	C348.223145,46.021019 352.427734,45.607384 356.537140,46.059231 
	C367.844177,47.302486 375.089630,54.334538 380.475861,63.739117 
	C384.770172,71.237076 387.016693,79.003342 385.125153,87.837601 
	C382.908478,98.190712 376.134918,105.293282 365.474701,107.551163 
	C358.795135,108.965919 352.005402,110.081017 345.522064,112.139862 
	C339.038086,114.198921 333.167938,117.807220 332.792053,125.632477 
	C332.626495,129.079117 334.105072,132.578186 334.508728,136.091187 
	C334.682007,137.598984 334.357819,140.335754 333.669891,140.541428 
	C331.912262,141.066879 328.890778,141.267334 328.012451,140.221924 
	C320.026093,130.716385 314.102448,120.183235 318.158417,107.272812 
	C320.337921,100.335320 326.237762,96.583183 333.231262,94.769066 
	C343.408600,92.129051 353.600677,89.542183 363.742218,86.770653 
	C366.091827,86.128532 368.562836,85.223030 370.461578,83.765839 
	C377.289215,78.525940 375.362122,69.441689 367.590302,65.643051 
	C359.079010,61.482960 351.083344,63.788132 342.914154,65.801498 
	C338.331573,66.930931 335.410431,65.438103 333.964661,60.663754 
	C331.708221,53.212105 335.146423,47.906681 343.646393,46.202621 
z"/>
<path fill="#17514D" opacity="1.000000" stroke="none" 
	d="
M235.877014,50.078747 
	C230.875443,49.813187 228.213776,46.895844 227.029343,42.915710 
	C225.767853,38.676609 229.222031,31.956152 232.639069,29.575863 
	C244.731995,21.152008 257.181122,20.785521 269.643585,28.192316 
	C282.220093,35.666908 292.275177,51.472202 286.189087,67.027664 
	C283.381683,74.203064 277.266785,77.819374 271.549744,81.970490 
	C267.979980,84.562439 264.256561,86.960068 260.825714,89.722610 
	C250.738480,97.844803 251.767014,109.438087 261.976166,117.959557 
	C261.395691,122.418701 259.188416,124.298111 254.951172,121.840080 
	C246.465149,116.917336 238.235062,111.717522 234.958710,101.552834 
	C231.704803,91.457825 237.848999,82.371307 244.779343,77.098717 
	C252.538223,71.195778 260.565582,65.607826 267.960480,59.280212 
	C271.701599,56.079025 274.928040,51.990498 273.382812,45.990665 
	C271.483276,38.615192 262.650574,35.736382 253.597870,39.910889 
	C249.771713,41.675270 246.494080,44.599113 242.857056,46.815319 
	C240.776703,48.082973 238.475159,48.987591 235.877014,50.078747 
z"/>
<path fill="#17514D" opacity="1.000000" stroke="none" 
	d="
M145.413818,73.398605 
	C144.780487,74.400681 144.302689,75.070953 143.833466,75.747200 
	C139.579865,81.877426 138.019119,82.276703 131.110153,78.998085 
	C127.316635,77.197884 124.978447,72.046860 127.281067,67.396355 
	C130.123047,61.656521 134.056564,56.484070 139.691223,52.776707 
	C153.150650,43.921005 166.765182,46.489410 178.632111,54.467503 
	C190.814133,62.657413 197.910828,76.955711 187.578568,92.117165 
	C183.497437,98.105759 179.724091,104.308357 175.924469,110.483589 
	C169.446701,121.011368 173.318680,128.814911 182.640961,133.911118 
	C184.399506,134.872467 187.330582,134.641403 186.420761,138.487061 
	C185.512436,142.326279 182.995773,142.271255 180.504440,141.697388 
	C170.110550,139.303146 159.472626,137.127457 153.766418,126.483620 
	C149.661087,118.825912 152.168808,111.509712 155.896973,104.804047 
	C159.989624,97.442772 165.172531,90.696129 169.560486,83.486961 
	C171.748642,79.891937 173.475784,75.957512 174.961121,72.007278 
	C177.195465,66.065010 170.384155,58.692360 164.074295,59.834366 
	C155.780136,61.335499 149.935516,66.135788 145.413818,73.398605 
z"/>
<path fill="#17514D" opacity="1.000000" stroke="none" 
	d="
M191.958557,185.984070 
	C186.230316,185.516235 181.706543,183.037064 180.245316,178.029861 
	C178.589676,172.356445 178.749054,166.256241 183.292877,161.450104 
	C185.600067,159.009750 194.759918,158.886017 198.302597,160.980820 
	C203.043793,163.784317 205.959030,170.397110 204.847763,175.993546 
	C203.495987,182.801285 198.362976,184.944016 191.958557,185.984070 
z"/>
<path fill="#17514D" opacity="1.000000" stroke="none" 
	d="
M261.177002,142.588562 
	C266.180969,146.794418 268.724945,151.342133 267.187805,157.913651 
	C265.171661,166.532944 258.706543,168.043457 250.892365,166.789917 
	C244.409744,165.749969 240.407059,158.114304 242.229263,151.389572 
	C244.623108,142.555130 251.899841,139.022888 261.177002,142.588562 
z"/>
<path fill="#17514D" opacity="1.000000" stroke="none" 
	d="
M312.342407,155.964157 
	C318.766266,156.204926 323.817200,157.948807 326.159760,164.209717 
	C328.234589,169.755203 326.807007,174.514740 323.172211,178.887405 
	C320.416595,182.202423 314.488037,182.988617 308.376068,181.029816 
	C303.684021,179.526047 302.262970,176.159348 301.948303,171.630264 
	C301.406799,163.836243 304.552582,158.597870 312.342407,155.964157 
z"/>
<path fill="#A9BEBD" opacity="1.000000" stroke="none" 
	d="
M213.853271,350.598633 
	C199.621567,351.033844 185.283966,351.033112 170.478699,351.002625 
	C170.660477,350.643402 171.309982,350.026611 171.959305,350.026794 
	C185.888672,350.030487 199.818039,350.103333 213.853271,350.598633 
z"/>
<path fill="#A7BDBC" opacity="1.000000" stroke="none" 
	d="
M337.430359,350.059631 
	C336.364532,350.400299 334.840393,350.940308 333.311249,350.954895 
	C322.052124,351.062347 310.792023,351.064789 299.030579,351.064636 
	C300.050415,350.687103 301.569855,350.059662 303.093658,350.048859 
	C314.385193,349.968903 325.677612,350.011566 337.430359,350.059631 
z"/>
</svg>